<?xml version="1.0" encoding="UTF-8"?>
<svg version="1.1" xmlns="http://www.w3.org/2000/svg" width="128" height="128">
<path d="M0 0 C15.18 0 30.36 0 46 0 C46 42.24 46 84.48 46 128 C3.76 128 -38.48 128 -82 128 C-82 111.17 -82 94.34 -82 77 C-79.525 76.505 -79.525 76.505 -77 76 C-77 75.34 -77 74.68 -77 74 C-67.43 74 -57.86 74 -48 74 C-48 63.44 -48 52.88 -48 42 C-47.34 42 -46.68 42 -46 42 C-45.71125 41.195625 -45.4225 40.39125 -45.125 39.5625 C-44 37 -44 37 -42 36 C-39.22839374 35.91316555 -36.48225235 35.8844421 -33.7109375 35.90234375 C-32.48330185 35.90446617 -32.48330185 35.90446617 -31.23086548 35.90663147 C-28.61220675 35.9122371 -25.99363296 35.92479052 -23.375 35.9375 C-21.60156373 35.94251428 -19.82812613 35.94707731 -18.0546875 35.95117188 C-13.70306581 35.96135826 -9.35162818 35.9809325 -5 36 C-5 25.44 -5 14.88 -5 4 C-4.34 4 -3.68 4 -3 4 C-2.01 2.68 -1.02 1.36 0 0 Z M-42 37 C-42 37.33 -42 37.66 -42 38 C-29.79 38 -17.58 38 -5 38 C-5 37.67 -5 37.34 -5 37 C-17.21 37 -29.42 37 -42 37 Z " fill="#FE9F00" transform="translate(82,0)"/>
<path d="M0 0 C0.80103149 0.00202423 1.60206299 0.00404846 2.42736816 0.00613403 C3.24483521 0.00517731 4.06230225 0.00422058 4.90454102 0.00323486 C6.63627194 0.00255308 8.3680054 0.00440724 10.09973145 0.00857544 C12.75978298 0.01392374 15.41966566 0.00863041 18.07971191 0.00222778 C19.75809771 0.00288857 21.43648339 0.00416973 23.11486816 0.00613403 C23.91589966 0.0041098 24.71693115 0.00208557 25.54223633 0 C31.15616738 0.02399575 31.15616738 0.02399575 32.27111816 1.13894653 C32.36612365 3.6033871 32.39669802 6.0396928 32.38464355 8.50442505 C32.38478958 9.27510315 32.38493561 10.04578125 32.38508606 10.83981323 C32.38438676 13.39918792 32.37659362 15.95849074 32.36877441 18.51785278 C32.36691029 20.28762268 32.36548636 22.0573931 32.36448669 23.8271637 C32.36066105 28.49446019 32.35083037 33.16172577 32.33978271 37.82901001 C32.32777523 43.42402253 32.32316658 49.01904537 32.31732941 54.61406708 C32.30761863 63.12238176 32.28846241 71.63062855 32.27111816 80.13894653 C7.52111816 80.13894653 -17.22888184 80.13894653 -42.72888184 80.13894653 C-42.72888184 66.60894653 -42.72888184 53.07894653 -42.72888184 39.13894653 C-25.40388184 38.64394653 -25.40388184 38.64394653 -7.72888184 38.13894653 C-7.6682959 35.4796106 -7.60770996 32.82027466 -7.54528809 30.08035278 C-7.48354654 27.51546241 -7.42013906 24.95061829 -7.35656738 22.38577271 C-7.31315484 20.59805383 -7.27148455 18.81029179 -7.23156738 17.02249146 C-7.17401723 14.45831263 -7.1102798 11.89435241 -7.04528809 9.33035278 C-7.02857559 8.52618423 -7.0118631 7.72201569 -6.99464417 6.89347839 C-6.81571894 0.24885239 -6.65555324 0.02844797 0 0 Z " fill="#FEC007" transform="translate(47.7288818359375,42.861053466796875)"/>
<path d="M0 0 C15.18 0 30.36 0 46 0 C46 42.24 46 84.48 46 128 C3.76 128 -38.48 128 -82 128 C-82 111.17 -82 94.34 -82 77 C-79.525 76.505 -79.525 76.505 -77 76 C-77 75.34 -77 74.68 -77 74 C-67.43 74 -57.86 74 -48 74 C-48 63.44 -48 52.88 -48 42 C-47.34 42 -46.68 42 -46 42 C-45.71125 41.195625 -45.4225 40.39125 -45.125 39.5625 C-44 37 -44 37 -42 36 C-39.22839374 35.91316555 -36.48225235 35.8844421 -33.7109375 35.90234375 C-32.48330185 35.90446617 -32.48330185 35.90446617 -31.23086548 35.90663147 C-28.61220675 35.9122371 -25.99363296 35.92479052 -23.375 35.9375 C-21.60156373 35.94251428 -19.82812613 35.94707731 -18.0546875 35.95117188 C-13.70306581 35.96135826 -9.35162818 35.9809325 -5 36 C-5 25.44 -5 14.88 -5 4 C-4.34 4 -3.68 4 -3 4 C-2.01 2.68 -1.02 1.36 0 0 Z M3 5 C3 43.94 3 82.88 3 123 C15.54 123 28.08 123 41 123 C41 84.06 41 45.12 41 5 C28.46 5 15.92 5 3 5 Z M-42 37 C-42 37.33 -42 37.66 -42 38 C-29.79 38 -17.58 38 -5 38 C-5 37.67 -5 37.34 -5 37 C-17.21 37 -29.42 37 -42 37 Z M-41 44 C-41.16010481 46.73701178 -41.25946828 49.4516759 -41.31640625 52.19140625 C-41.33718735 53.01124496 -41.35796844 53.83108368 -41.37937927 54.67576599 C-41.44496494 57.30458901 -41.50380126 59.93351504 -41.5625 62.5625 C-41.60567667 64.34050561 -41.64929067 66.11850065 -41.69335938 67.89648438 C-41.80148171 72.26421872 -41.90048728 76.63202691 -42 81 C-59.325 81.495 -59.325 81.495 -77 82 C-77 95.53 -77 109.06 -77 123 C-52.25 123 -27.5 123 -2 123 C-1.97093604 108.98340046 -1.97093604 108.98340046 -1.95117188 94.96679688 C-1.94518351 89.25381548 -1.93808338 83.54085004 -1.92456055 77.82788086 C-1.9137314 73.22433738 -1.90772311 68.62081101 -1.90512276 64.01725578 C-1.90326856 62.25690377 -1.89964804 60.49655274 -1.89426994 58.73620796 C-1.88705914 56.27927723 -1.88600907 53.82241805 -1.88647461 51.36547852 C-1.8810817 50.26280891 -1.8810817 50.26280891 -1.87557983 49.13786316 C-1.58599332 45.78416893 -1.58599332 45.78416893 -3 43 C-5.72724279 42.89900512 -8.42862523 42.86029471 -11.15625 42.8671875 C-11.97371704 42.86623077 -12.79118408 42.86527405 -13.63342285 42.86428833 C-15.36515378 42.86360655 -17.09688724 42.86546071 -18.82861328 42.86962891 C-21.48866482 42.87497721 -24.1485475 42.86968388 -26.80859375 42.86328125 C-28.48697954 42.86394203 -30.16536523 42.8652232 -31.84375 42.8671875 C-32.64478149 42.86516327 -33.44581299 42.86313904 -34.27111816 42.86105347 C-37.93582301 42.52786332 -37.93582301 42.52786332 -41 44 Z " fill="#060400" transform="translate(82,0)"/>
<path d="M0 0 C0.80103149 0.00202423 1.60206299 0.00404846 2.42736816 0.00613403 C3.24483521 0.00517731 4.06230225 0.00422058 4.90454102 0.00323486 C6.63627194 0.00255308 8.3680054 0.00440724 10.09973145 0.00857544 C12.75978298 0.01392374 15.41966566 0.00863041 18.07971191 0.00222778 C19.75809771 0.00288857 21.43648339 0.00416973 23.11486816 0.00613403 C23.91589966 0.0041098 24.71693115 0.00208557 25.54223633 0 C31.15616738 0.02399575 31.15616738 0.02399575 32.27111816 1.13894653 C32.36612365 3.6033871 32.39669802 6.0396928 32.38464355 8.50442505 C32.38478958 9.27510315 32.38493561 10.04578125 32.38508606 10.83981323 C32.38438676 13.39918792 32.37659362 15.95849074 32.36877441 18.51785278 C32.36691029 20.28762268 32.36548636 22.0573931 32.36448669 23.8271637 C32.36066105 28.49446019 32.35083037 33.16172577 32.33978271 37.82901001 C32.3295696 42.58791689 32.32498929 47.34682874 32.31994629 52.10574341 C32.30920814 61.45015806 32.29213116 70.79454973 32.27111816 80.13894653 C31.94111816 80.13894653 31.61111816 80.13894653 31.27111816 80.13894653 C30.94111816 54.72894653 30.61111816 29.31894653 30.27111816 3.13894653 C18.72111816 2.80894653 7.17111816 2.47894653 -4.72888184 2.13894653 C-4.72888184 14.01894653 -4.72888184 25.89894653 -4.72888184 38.13894653 C-5.38888184 38.13894653 -6.04888184 38.13894653 -6.72888184 38.13894653 C-6.75353111 32.88789211 -6.77171752 27.63687108 -6.78381348 22.38577271 C-6.78885402 20.59800632 -6.79568638 18.81024409 -6.80432129 17.02249146 C-6.81639914 14.45843485 -6.82211278 11.89443256 -6.82653809 9.33035278 C-6.83169937 8.52618423 -6.83686066 7.72201569 -6.84217834 6.89347839 C-6.84237399 4.97492938 -6.79090166 3.05649285 -6.72888184 1.13894653 C-4.91322747 -0.67670783 -2.41618222 0.01032754 0 0 Z " fill="#B28B04" transform="translate(47.7288818359375,42.861053466796875)"/>
<path d="M0 0 C2 1 2 1 2 1 Z " fill="#000000" transform="translate(3,75)"/>
<path d="" fill="#000000" transform="translate(0,0)"/>
<path d="" fill="#000000" transform="translate(0,0)"/>
<path d="" fill="#000000" transform="translate(0,0)"/>
<path d="" fill="#000000" transform="translate(0,0)"/>
<path d="" fill="#000000" transform="translate(0,0)"/>
</svg>
